<svg xmlns:xlink="http://www.w3.org/1999/xlink" preserveAspectRatio="xMidYMid meet" data-bbox="25 25.5 150 149.1" viewBox="25 25.5 150 149.1" xmlns="http://www.w3.org/2000/svg" data-type="tint" role="presentation" aria-hidden="true" width="150"  height="149.1" >
    <g>
        <path d="M175 138.5c0 1.4-1.1 2.5-2.6 2.5h-5.6l3.2 3.8c.9 1 .7 2.5-.4 3.4-.5.4-1 .6-1.6.6-.8 0-1.4-.3-1.9-.9l-5.7-6.9h-15.9l11.1 11 9.1-1c1.3-.2 2.7.9 2.8 2.2.2 1.3-.9 2.6-2.3 2.8l-5 .5 4.1 4c1 1 1 2.6 0 3.5-.5.5-1.1.8-1.8.8s-1.2-.3-1.8-.8l-4.1-4-.5 5c-.2 1.2-1.2 2.3-2.6 2.3h-.3c-1.3-.2-2.4-1.3-2.2-2.8l1.1-9-11.1-11v15.7l7 5.7c1.1.9 1.1 2.5.3 3.5-.5.6-1.2.9-1.9.9-.6 0-1-.2-1.4-.6l-3.8-3.2v5.6c0 1.4-1.1 2.5-2.6 2.5-1.4 0-2.6-1-2.6-2.5v-5.6l-4.1 3.2c-1.1.9-2.8.7-3.6-.4s-.6-2.7.5-3.5l7.2-5.7v-15.7l-11.3 11 .9 9c.2 1.3-.9 2.6-2.3 2.8h-.3c-1.2 0-2.4-.9-2.6-2.3l-.5-5-4.1 4c-.5.5-1.1.8-1.8.8s-1.2-.3-1.8-.8c-1-1-1-2.6 0-3.5l4.1-3.9-5-.5c-1.3-.2-2.4-1.3-2.3-2.8.2-1.3 1.4-2.4 2.8-2.2l9.1 1 11.1-11h-15.8l-5.7 6.9c-.5.6-1.2.9-1.9.9-.6 0-1.1-.2-1.6-.5-1.1-.9-1.2-2.4-.4-3.4l3.2-3.8h-5.6c-1.4 0-2.6-1-2.6-2.5s1.1-2.5 2.6-2.5h5.6l-3.2-4c-.9-1-.7-2.8.4-3.6 1.1-.9 2.7-.6 3.5.4l5.7 7.2H132l-11.1-11.2-9.1.9h-.3c-1.2 0-2.4-.9-2.6-2.3-.2-1.3.9-2.6 2.3-2.8l5-.5-4.1-4c-1-1-1-2.6 0-3.5 1-1 2.7-1 3.5 0l4.1 4 .5-5c.2-1.3 1.3-2.4 2.8-2.3 1.3.2 2.4 1.3 2.3 2.8l-.9 9 11.3 11v-15.7l-7.2-5.7c-1.1-.9-1.3-2.5-.5-3.5.9-1 2.6-1.2 3.6-.4l4.1 3.2v-5.6c0-1.4 1.1-2.5 2.6-2.5 1.4 0 2.6 1 2.6 2.5v5.6l3.8-3.2c1.1-.9 2.7-.7 3.4.4.9 1 .9 2.7-.3 3.5l-7 5.7v15.7l11-11-1.1-9c-.2-1.3.9-2.6 2.2-2.8s2.7.9 2.8 2.3l.5 5 4.1-4c1-1 2.7-1 3.5 0 1 1 1 2.6 0 3.5l-4.1 4 5 .5c1.3.2 2.4 1.4 2.3 2.8-.2 1.2-1.2 2.3-2.6 2.3h-.3l-9.1-.9-10.5 11.1h15.8l5.7-7.2c.9-1 2.5-1.3 3.5-.5 1.1.9 1.2 2.5.4 3.6l-3.2 4h5.6c1.6.2 2.7 1.2 2.7 2.6zM45.6 65.2c0-10.6 8.7-19.4 19.5-19.4s19.5 8.6 19.5 19.4-8.7 19.4-19.5 19.4-19.5-8.8-19.5-19.4zm6.6 0c0 7 5.7 12.7 12.8 12.7s12.8-5.7 12.8-12.7c0-7-5.7-12.7-12.8-12.7-7.1 0-12.8 5.6-12.8 12.7zm12.9-23.4c1.9 0 2.9-1.5 2.9-3.2v-9.9c0-1.8-1.1-3.2-2.9-3.2-1.8 0-2.9 1.5-2.9 3.2v9.8c-.1 1.9 1 3.3 2.9 3.3zm-3 50.1v9.8c0 1.8 1.1 3.2 2.9 3.2 1.8 0 2.9-1.5 2.9-3.2v-9.8c0-1.8-1.1-3.2-2.9-3.2-1.7 0-2.9 1.3-2.9 3.2zm-20.7-27c0-1.8-1.5-3.3-3.3-3.3h-9.8c-1.9 0-3.3 1.5-3.3 3.3s1.5 3.3 3.3 3.3h9.9c1.8 0 3.2-1.5 3.2-3.3zm47.1 0c0 1.8 1.5 3.3 3.3 3.3h9.9c1.9 0 3.3-1.5 3.3-3.3s-1.5-3.3-3.3-3.3h-9.9c-1.8-.1-3.3 1.4-3.3 3.3zM43.7 48.7c.7.7 1.5.9 2.4.9s1.7-.4 2.4-.9c1.2-1.2 1.2-3.3 0-4.7l-7-6.9c-1.2-1.2-3.4-1.2-4.7 0-1.2 1.2-1.2 3.3 0 4.7l6.9 6.9zm37.9 33.1c-1.2 1.2-1.2 3.3 0 4.7l7 6.9c.7.7 1.5.9 2.4.9s1.7-.4 2.4-.9c1.2-1.2 1.2-3.3 0-4.7l-7-6.9c-1.4-1.4-3.4-1.4-4.8 0zM39.1 94.3c.9 0 1.7-.4 2.4-.9l7-6.9c1.2-1.2 1.2-3.3 0-4.7-1.2-1.2-3.4-1.2-4.7 0l-7 6.9c-1.2 1.2-1.2 3.3 0 4.7.5.5 1.4.9 2.3.9zM84 49.6c.9 0 1.7-.4 2.4-.9l7-6.9c1.2-1.2 1.2-3.3 0-4.7-1.2-1.3-3.4-1.2-4.7 0l-7 6.9c-1.2 1.2-1.2 3.3 0 4.7.6.7 1.4.9 2.3.9zm86.3-11.9c-1.5-1.5-3.9-1.5-5.3 0l-127.9 127c-1.5 1.5-1.5 3.9 0 5.3.8.8 1.7 1 2.7 1s1.9-.4 2.7-1L170.3 43c1.5-1.5 1.5-3.7 0-5.3z" fill="#7F7F7F"></path>
    </g>
</svg>