<svg xmlns:xlink="http://www.w3.org/1999/xlink" preserveAspectRatio="xMidYMid meet" data-bbox="29.179 31.986 141.611 136.025" viewBox="29.179 31.986 141.611 136.025" height="200" width="200" xmlns="http://www.w3.org/2000/svg" data-type="color" role="presentation" aria-hidden="true"><defs><style>#comp-kvtuxiuc svg [data-color="1"] {fill: #485133;}</style></defs>
    <g>
        <path d="M121.344 156.225c-6.275.002-13.189-.011-20.091-.023-8.64-.021-17.259-.035-24.577-.022l-.013-5.913c7.317-.019 15.948.001 24.603.022 8.862.018 17.743.032 25.268.019l.013 5.913c-1.671.003-3.411.004-5.203.004z" fill="#485133" data-color="1"></path>
        <path d="M47.98 156.189l-3.76.001c-7.401.002-12.478-4.01-14.298-11.296-1.624-6.502-.521-16.881 2.683-25.241a2.952 2.952 0 0 1 2.754-1.895l11.408-.003c2.46-1.762 4.585-3.403 6.518-4.893 7.454-5.745 12.84-9.895 23.37-9.899l20.18-.006c12.425-.004 22.947 4.572 33.99 14.81 27.443 1 39.958 11.341 39.961 20.646l.004 14.783a2.952 2.952 0 0 1-2.949 2.957l-17.7.005-.002-5.913 14.75-.004-.003-11.826c-.001-4.51-8.644-14.058-35.347-14.772a2.953 2.953 0 0 1-1.951-.811c-10.161-9.661-19.646-13.966-30.752-13.962l-20.18.006c-8.524.003-12.519 3.081-19.772 8.673-2.186 1.684-4.614 3.556-7.474 5.577a2.945 2.945 0 0 1-1.7.54l-10.267.003c-2.219 6.791-3 14.983-1.8 19.79 1.162 4.651 3.888 6.818 8.575 6.817h.743l4.84-.001.024 2.957 2.964-.001c0 .494-.166 2.957-3.494 2.958H47.98z" fill="#485133" data-color="1"></path>
        <path d="M115.013 129.56l-47.2.014a2.945 2.945 0 0 1-2.037-.816l-6.181-5.911 4.072-4.28 5.325 5.094 45.454-.013 5.372-2.147 2.185 5.491-5.899 2.358c-.348.138-.717.21-1.091.21z" fill="#485133" data-color="1"></path>
        <path d="M61.653 168.011c-8.138.002-14.761-6.622-14.763-14.77-.002-8.148 6.616-14.779 14.754-14.781 8.136-.002 14.758 6.625 14.76 14.773.003 8.147-6.615 14.776-14.751 14.778zm-.007-23.638c-4.886.001-8.857 3.978-8.856 8.866.001 4.885 3.975 8.86 8.861 8.858 4.883-.001 8.855-3.978 8.853-8.864-.001-4.887-3.975-8.861-8.858-8.86z" fill="#485133" data-color="1"></path>
        <path d="M138.353 167.988c-8.138.002-14.761-6.622-14.763-14.77-.002-8.148 6.616-14.779 14.754-14.781 8.136-.002 14.758 6.625 14.76 14.772.003 8.149-6.615 14.777-14.751 14.779zm-.007-23.637c-4.886.001-8.857 3.978-8.856 8.866.001 4.885 3.975 8.86 8.861 8.858 4.883-.001 8.855-3.978 8.853-8.864-.001-4.887-3.975-8.862-8.858-8.86z" fill="#485133" data-color="1"></path>
        <path d="M43.928 111.842l-5.9.002-.002-6.228c-.003-11.047 8.93-20.384 19.506-20.387l33.588-.01c3.365-.001 5.899-2.366 5.898-5.502-.001-3.525-2.704-6.325-5.902-6.324l-20.649.007c-6.617.002-11.801-5.009-11.803-11.41-.002-6.843 5.289-12.241 11.796-12.242l38.35-.011.002 5.913-38.35.011c-3.198.001-5.899 2.802-5.898 6.12.001 3.343 2.537 5.707 5.902 5.706l20.65-.006c6.508-.002 11.802 5.393 11.804 12.028.002 6.609-5.179 11.623-11.797 11.625l-33.588.01c-7.251.002-13.61 6.766-13.608 14.472l.001 6.226z" fill="#485133" data-color="1"></path>
        <path fill="#485133" d="M164.858 40.853v5.913h-20.65v-5.913h20.65z" data-color="1"></path>
        <path fill="#485133" d="M164.863 58.592v5.913h-20.65v-5.913h20.65z" data-color="1"></path>
        <path d="M147.167 73.377l-11.8.003c-3.768.001-6.148-1.448-7.48-2.954l-4.321.001c-9.76.003-17.702-7.952-17.705-17.734-.003-9.782 7.934-17.741 17.695-17.744l4.321-.001c1.331-1.508 3.71-2.958 7.478-2.959l11.8-.003.012 41.391zm-14.914-6.876c.026 0 .674.967 3.112.966l5.9-.002-.009-29.565-5.9.002c-2.57.001-3.148 1.075-3.171 1.121l-.685 1.998-2.043-.161-5.9.002c-6.508.002-11.798 5.307-11.797 11.83.002 6.522 5.296 11.825 11.803 11.823l8.006-.002.686 1.998-.002-.01z" fill="#485133" data-color="1"></path>
        <path fill="#485133" d="M132.411 46.774V58.6h-5.9V46.774h5.9z" data-color="1"></path>
    </g>
</svg>