<svg xmlns:xlink="http://www.w3.org/1999/xlink" preserveAspectRatio="xMidYMid meet" data-bbox="49.931 63.887 100.138 72.226" viewBox="49.931 63.887 100.138 72.226" height="200" width="200" xmlns="http://www.w3.org/2000/svg" data-type="color" role="presentation" aria-hidden="true"><defs><style>#comp-kwvx2qml svg [data-color="1"] {fill: #242323;}</style></defs>
    <g>
        <path d="M128.879 80.725c-6.813-5.731-16.91 4.388-12.527 13.285 1.498 3.042 1.979 5.629 1.626 6.784-.601 4.146-8.086 8.288-16.126 7.992-9.25-.508-17.481.553-20.784 6.372-1.937 3.413-2.291 6.497.012 9.764 2.129 3.02 6.151 5.728 11.551 4.035 15.63-5.511 28.43-11.654 37.756-15.553 4.367-2.012 12.386-7.606 10.778-14.419-2.199-7.592-7.974-14.811-12.286-18.26z" fill="#242323" data-color="1"></path>
        <path d="M137.52 75.603c2.775-2.898 3.346-6.854 1.276-8.837-2.07-1.981-5.998-1.239-8.773 1.66-2.775 2.898-3.346 6.854-1.276 8.836 2.07 1.982 5.998 1.239 8.773-1.659z" fill="#242323" data-color="1"></path>
        <path d="M136.43 82.767c1.008 1.427 3.337 1.516 5.201.199s2.558-3.542 1.549-4.968c-1.008-1.427-3.337-1.517-5.201-.199-1.864 1.316-2.557 3.54-1.549 4.968z" fill="#242323" data-color="1"></path>
        <path d="M146.565 84.695c-.82-1.16-2.764-1.196-4.342-.081s-2.194 2.959-1.374 4.12 2.764 1.196 4.342.081 2.193-2.96 1.374-4.12z" fill="#242323" data-color="1"></path>
        <path d="M147.109 94.894c1.351-.954 1.836-2.592 1.083-3.658-.753-1.066-2.459-1.156-3.81-.202s-1.836 2.592-1.083 3.658c.754 1.066 2.459 1.157 3.81.202z" fill="#242323" data-color="1"></path>
        <path d="M149.705 97.188c-.753-1.065-2.427-1.178-3.739-.251s-1.765 2.542-1.012 3.608c.753 1.065 2.427 1.178 3.739.251 1.311-.926 1.765-2.542 1.012-3.608z" fill="#242323" data-color="1"></path>
        <path d="M95.191 83.51c-3.803-4.003-11.486-9.145-19.236-10.692-6.925-1.024-11.819 7.44-13.453 11.963-3.093 9.623-8.127 22.898-12.292 38.94-1.229 5.525 1.811 9.302 5 11.167 3.451 2.018 6.494 1.403 9.73-.817 5.517-3.785 5.876-12.077 4.584-21.25-.977-7.986 2.514-15.795 6.594-16.746 1.121-.449 3.74-.19 6.898 1.044 9.238 3.612 18.464-7.307 12.175-13.609z" fill="#242323" data-color="1"></path>
        <path d="M98.653 83.348c2.151 1.895 6.044.99 8.696-2.021s3.059-6.987.909-8.882-6.044-.99-8.696 2.021-3.06 6.988-.909 8.882z" fill="#242323" data-color="1"></path>
        <path d="M92.516 76.16c1.507.883 3.665.003 4.819-1.965 1.154-1.969.867-4.282-.64-5.165s-3.665-.003-4.819 1.966c-1.154 1.968-.867 4.281.64 5.164z" fill="#242323" data-color="1"></path>
        <path d="M86.195 72.264c1.225.718 3.011-.052 3.988-1.719s.776-3.601-.449-4.319-3.011.051-3.988 1.719c-.977 1.667-.776 3.601.449 4.319z" fill="#242323" data-color="1"></path>
        <path d="M80.05 70.327c1.126.66 2.717.038 3.553-1.389s.602-3.119-.524-3.779c-1.126-.66-2.717-.038-3.553 1.39-.837 1.427-.602 3.118.524 3.778z" fill="#242323" data-color="1"></path>
        <path d="M74.078 69.177c1.126.66 2.697.071 3.509-1.315.812-1.386.558-3.044-.568-3.704-1.126-.66-2.697-.071-3.509 1.315-.812 1.385-.558 3.044.568 3.704z" fill="#242323" data-color="1"></path>
    </g>
</svg>