<svg xmlns:xlink="http://www.w3.org/1999/xlink" preserveAspectRatio="xMidYMid meet" data-bbox="42.801 30.801 114.399 138.399" viewBox="42.801 30.801 114.399 138.399" height="200" width="200" xmlns="http://www.w3.org/2000/svg" data-type="color" role="presentation" aria-hidden="true"><defs><style>#comp-l07lr0cc svg [data-color="1"] {fill: #7A8F56;}</style></defs>
    <g>
        <path d="M65.91 76.289c-4.84 0-13.271-1.261-18.139-9.232-7.015-11.491-6.559-26.308 1.083-35.231a2.937 2.937 0 0 1 2.186-1.025c.911.012 1.648.339 2.212.965 2.843 3.14 6.686 4.774 10.758 6.503 6.055 2.574 12.921 5.491 17.134 13.925 3.212 6.437.774 18.419-7.072 23.644l-3.244-4.906c5.777-3.849 6.743-12.746 5.066-16.101-3.241-6.493-8.551-8.751-14.173-11.139-3.476-1.478-7.047-2.995-10.205-5.52-4.215 7.136-3.828 17.475 1.258 25.808 3.479 5.695 9.927 6.479 13.428 6.417l.08 5.889c-.123.001-.246.003-.372.003z" fill="#7A8F56" data-color="1"></path>
        <path d="M77 83.804h-5.869c0-13.822-6.637-21.918-13.056-29.749-1.398-1.704-2.771-3.382-4.055-5.083l4.677-3.554c1.238 1.638 2.562 3.254 3.909 4.896C69.351 58.543 77 67.87 77 83.804z" fill="#7A8F56" data-color="1"></path>
        <path d="M69.168 116.196h-5.869V89.694a2.939 2.939 0 0 1 2.934-2.945h11.738a2.938 2.938 0 0 1 2.934 2.945v5.889h-5.869v-2.945h-5.869v23.558z" fill="#7A8F56" data-color="1"></path>
        <path d="M136.659 169.2H60.365a2.938 2.938 0 0 1-2.934-2.945v-29.447H63.3v26.502h70.426v-26.502h5.869v29.447a2.94 2.94 0 0 1-2.936 2.945z" fill="#7A8F56" data-color="1"></path>
        <path d="M136.659 139.753a2.924 2.924 0 0 1-1.992-.781L98.512 105.48l-36.156 33.493a2.928 2.928 0 0 1-4.066-.082l-8.803-8.834a2.949 2.949 0 0 1 .068-4.23l46.95-44.17a2.926 2.926 0 0 1 4.012 0l46.95 44.17c.582.545.914 1.303.928 2.101a2.954 2.954 0 0 1-.86 2.129l-8.803 8.834a2.915 2.915 0 0 1-2.073.862zM98.512 98.528c.714 0 1.427.26 1.992.781l36.075 33.417 4.665-4.683L98.512 87.84 55.78 128.042l4.665 4.683L96.52 99.308a2.933 2.933 0 0 1 1.992-.78z" fill="#7A8F56" data-color="1"></path>
        <path d="M92.643 169.2H75.037a2.938 2.938 0 0 1-2.934-2.945v-29.447a2.939 2.939 0 0 1 2.934-2.945h17.606a2.938 2.938 0 0 1 2.934 2.945v29.447a2.938 2.938 0 0 1-2.934 2.945zm-14.672-5.889h11.738v-23.557H77.971v23.557z" fill="#7A8F56" data-color="1"></path>
        <path d="M121.987 157.421h-17.606a2.938 2.938 0 0 1-2.934-2.945v-17.668a2.939 2.939 0 0 1 2.934-2.945h17.606a2.938 2.938 0 0 1 2.934 2.945v17.668a2.938 2.938 0 0 1-2.934 2.945zm-14.672-5.889h11.738v-11.779h-11.738v11.779z" fill="#7A8F56" data-color="1"></path>
        <path d="M145.462 80.86c-6.473 0-11.738-5.284-11.738-11.779s5.264-11.779 11.738-11.779c6.473 0 11.738 5.284 11.738 11.779s-5.264 11.779-11.738 11.779zm0-17.669c-3.235 0-5.869 2.641-5.869 5.889s2.634 5.889 5.869 5.889 5.869-2.641 5.869-5.889-2.633-5.889-5.869-5.889z" fill="#7A8F56" data-color="1"></path>
        <path d="M119.053 63.191c-8.09 0-14.672-6.605-14.672-14.723s6.582-14.723 14.672-14.723 14.672 6.605 14.672 14.723-6.583 14.723-14.672 14.723zm0-23.557c-4.854 0-8.803 3.963-8.803 8.834s3.949 8.834 8.803 8.834 8.803-3.963 8.803-8.834-3.949-8.834-8.803-8.834z" fill="#7A8F56" data-color="1"></path>
        <path d="M122.403 98.393l-.831-5.829c3.582-.515 6.284-3.648 6.284-7.287 0-4.059-3.29-7.362-7.336-7.362-3.628 0-6.749 2.712-7.262 6.308l-5.812-.837c.926-6.476 6.545-11.36 13.073-11.36 7.282 0 13.205 5.944 13.205 13.251.001 6.55-4.868 12.19-11.321 13.116z" fill="#7A8F56" data-color="1"></path>
    </g>
</svg>