<svg xmlns:xlink="http://www.w3.org/1999/xlink" preserveAspectRatio="xMidYMid meet" data-bbox="10.003 14.5 179.997 170.817" viewBox="10.003 14.5 179.997 170.817" height="200" width="200" xmlns="http://www.w3.org/2000/svg" data-type="color" role="presentation" aria-hidden="true" aria-labelledby="svgcid-3h0f1k-bqrpqu"><title id="svgcid-3h0f1k-bqrpqu"></title>
    <g>
        <path d="M100.866 83.15c-.075.438-.489.617-.888.497-1.535-.46-3.341-.776-4.943-.601-.639.072-1.819.242-1.714 1.14.099.872.567 1.371 1.276 1.842 1.367.906 3.188 1.539 4.196 2.889 1.067 1.427.61 2.936-.366 4.281-.158.215-.524.337-.771.199-2.597-1.451-8.38-4.9-11.252-2.503 2.575.789 5.199 1.746 6.916 3.917 2.145 2.716 3.517 6.755 3.148 10.217-.31 2.92-1.765 5.254-4.499 6.452-2.22.975-5.082 1.403-5.362 4.268-.043.436-.522.633-.896.5-1.27-.444-1.824-1.783-2.383-2.891-.286-.571-.61-1.355-1.188-1.701-.144-.085-1.027-.343-1.04.05-.014.359.118.725.254 1.052.618 1.47 1.378 2.811 1.843 4.347.468 1.539 1.083 3.431.706 5.049-.808 3.478-5.491 4.86-7.863 7.119-1.062 1.012-2.295 2.384-3.892 1.674-1.583-.707-2.271-2.944-2.913-4.382-1.698-3.797-5.598-4.18-9.276-4.382-2.779-.149-6.328-.707-7.786-3.425-1.217-2.269-.195-4.839 1.22-6.768.781-1.063 1.714-2.288 2.835-3.019 1.091-.712 2.346-1.188 3.386-1.972.725-.547 1.3-1.204 1.153-2.182-.091-.609-.473-.707-1.027-.505-1.054.385-1.739 1.087-2.525 1.844-1.677 1.616-3.948 3.558-6.395 3.757-2.988.244-4.065-2.115-5.135-4.462-1.699-3.71-3.317-7.454-4.542-11.349-.115-.364.029-.656.358-.834 1.174-.638 10.859-3.088 10.222-4.722-1.511-3.882-7.963 2.423-9.431-1.56-.768-2.081-.31-5.283.634-7.244 1.206-2.508 3.624-2.894 6.063-1.767 2.399 1.111 4.558 2.463 7.125 3.207.693.202 3.557 1.039 3.279-.579-.171-1.002-1.519-1.533-2.356-1.849-2.089-.784-4.317-1.161-6.392-1.996-1.49-.598-2.752-1.531-2.706-3.274.061-2.243 1.286-5.067 2.792-6.715 1.057-1.156 2.434-1.43 3.841-1.302 1.112-1.156 2.506-2.099 3.806-2.865 2.204-1.294 4.622-2.376 7.216-2.514 2.594-.141 4.975.911 5.205 3.765.11 1.366-.419 3.683.498 4.834.155.194.904 1.228 1.037.874.158-.412.209-.861.23-1.299.053-1.129-.051-2.251-.214-3.367-.11-.752-.361-1.74-.005-2.469 1.006-2.067 4.574-2.734 6.604-2.979 6.457-.779 12.368 1.751 16.35 6.805 3.634 4.608 6.599 10.917 5.567 16.898z" fill="#93C080" data-color="1"></path>
        <path d="M94.707 141.635c.088.436-.399.662-.746.555a7.227 7.227 0 0 0-.904-.234c-.96-.17-1.918-.194-2.667-.912-.944-.901-1.468-2.03-1.915-3.242-1.332-3.609-2.731-7.191-4.089-10.789-2.969-7.871-5.667-15.835-8.674-23.693-2.982-7.799-6.048-15.567-8.864-23.427-2.148-5.992-4.335-12.133-5.898-18.357-.677-1.36-1.375-2.992-.952-4.217-.064-.327-.131-.651-.19-.978-.064-.337.484-.476.589-.149.072.223.142.446.211.67.428.016.872.425.676.954-.289.787.658 2.41.96 3.106.495 1.132 1.033 2.24 1.544 3.364 1.517 3.361 2.603 6.92 3.779 10.409 2.659 7.884 6.005 15.556 8.947 23.342 2.995 7.921 5.689 15.939 9.011 23.738 1.626 3.816 3.378 7.526 5.234 11.238.765 1.528 1.506 3.058 2.303 4.571.685 1.298 1.351 2.605 1.645 4.051z" fill="#4D705D" data-color="2"></path>
        <path d="M119.273 114.196c-.236.476-.479.946-.72 1.419-.872 2.742-2.027 5.416-3.076 8.081-1.23 3.117-2.449 6.239-3.744 9.333-1.377 3.29-3.487 7.416-7.074 8.556-.315.207-.647.33-.992.324a.475.475 0 0 1-.243-.064c-.356.04-.722.056-1.105.037-.029-.003-.053-.013-.08-.021-.765 0-1.57-.146-2.27-.279-.26-.051-.492-.25-.514-.523-.219-2.915.482-5.774 1.235-8.567.791-2.934 1.567-5.857 2.557-8.729 2.129-6.2 4.627-12.258 6.301-18.604.099-.383.701-.316.626.09-.12.659-.259 1.313-.406 1.964l2.849-1.416a.33.33 0 0 1 .439.101c.168-.274.345-.545.532-.803.342-.468.952-.011.81.47-.61 2.067-1.578 4.02-2.225 6.083-.687 2.184-1.259 4.398-1.824 6.614-1.118 4.379-2.501 8.689-3.541 13.09-.465 1.969-.96 3.957-1.284 5.955-.069.417-.115.853-.174 1.289a25.138 25.138 0 0 0 1.49-2.657c.979-2.006 1.792-4.092 2.816-6.08 1.471-2.857 2.889-5.742 4.397-8.578 1.059-1.988 2.143-4.021 3.448-5.878.19-.412.385-.821.591-1.225-.056-.125 0-.322.115-.393a.732.732 0 0 1 .345-.122.444.444 0 0 1 .286.085c.256-.084.579.153.435.448z" fill="#4D705D" data-color="2"></path>
        <path d="M85.356 140.463c.249.322.062.911-.393.919-2.199.037-3.983-2.012-5.293-3.532-1.92-2.224-3.557-4.661-5.197-7.092-1.72-2.551-3.659-4.943-5.536-7.382-2.469-3.213-5.05-6.205-8.048-8.921a.078.078 0 0 1-.123.005 5.284 5.284 0 0 0-.463-.539c-.163-.144-.088-.42.075-.486.083-.423.578-.765 1.024-.42.273.21.532.436.802.648a.56.56 0 0 1 .142.159c8.984 7.711 15.85 17.311 23.01 26.641z" fill="#4D705D" data-color="2"></path>
        <path d="M189.76 91.518c-3.21 2.017-7.171 2.718-10.899 3.035-3.606.306-7.149.186-10.747-.098-2.712-.215-6.684-.367-8.126-3.13-.821-1.573-1.444-6.085-3.806-6.011.425 2.243 1.859 4.124 3.019 6.059.321.534-.118 1.108-.725.927-2.116-.638-4.309-.465-6.486-.627-1.444-.109-2.878-.372-4.314-.561-1.476-.191-2.971-.375-4.416-.747-.936-.239-2.092-.494-2.811-1.196-2.051-2.001-1.048-4.836-2.249-7.167-.107-.21-1.169-1.804-1.551-1.462-.297.263-.345.805-.366 1.172-.062 1.034.077 2.208.615 3.114.329.558-.254 1.233-.832.824-1.982-1.403-3.94-.949-6.184-1.084-1.383-.085-2.712-.534-3.56-1.679-1.672-2.259-2.367-5.408-2.568-8.161-.206-2.846.676-5.487 3.025-7.249 1.233-.925 2.616-1.632 4.033-2.235 1.61-.683 3.145-1.23 2.351-3.276a.469.469 0 0 1-.032-.173 6.447 6.447 0 0 0-.177-.433c-.209-.476-.434-.941-.634-1.416-.147-.112-.289-.22-.417-.324-1.658-1.345-3.001-3.213-2.899-5.456.182-3.967 4.747-5.716 8.185-5.825 2.033-.064 4.094.019 6.106.33 1.733.268 3.948.632 5.282 1.879 1.107 1.036 1.404 2.583.278 3.731-.76.776-1.77 1.249-2.651 1.871-.414.292-.885.603-1.171 1.034-.337.502-.377 1.464.449 1.565 2.682.324 4.643-2.437 6.026-4.257 1.42-1.868 3.025-3.595 5.547-3.619 2.648-.024 4.876 1.865 6.604 3.662 2.054 2.137 3.806 4.549 5.363 7.063a.947.947 0 0 1 .099.223c1.736.165 3.424 1.012 4.716 2.15 4.015 3.537 6.625 9.197 7.446 14.411.08.51-.454.797-.885.659-2.214-.707-4.389-1.584-6.657-2.11-1.902-.441-4.272-.912-6.187-.237.083.05.166.098.254.141.489.231.995.431 1.511.601 1.163.383 2.37.72 3.584.906 3.771.574 7.992.699 10.875 3.526 2.549 2.503 3.239 6.322 5.983 8.679.28.238.355.748-.001.971z" fill="#2F4426" data-color="3"></path>
        <path d="M147.809 112.213c1.198 1.964.869 4.09.54 6.247-.31 2.036-.452 4.273-1.177 6.21-.778 2.075-2.888 1.273-4.073.149-.388-.369-.969-1.076-1.544-1.127-.438-.037-1.476-.106-1.019.558.524.757 1.211 1.366 1.867 2.006 2.025 1.982 1.487 4.682.447 7.007-1.27 2.833-3.309 5.075-5.566 7.169-1.257 1.167-2.584 2.293-3.726 3.574-.535.6-1.378 2.304-2.239 2.312-.302.003-.578-.162-.615-.484-.482-4.02-.444-8.846-4.138-11.4-1.482-1.026-3.21-1.775-4.533-3.016-1.413-1.326-2.017-2.857-2.875-4.541-.993-1.948-2.303-3.478-4.028-4.823-1.017-.792-1.736-1.945-1.367-3.292.428-1.552 1.981-2.2 2.575-3.598.075-.178.321-1.759-.366-1.432-.375.181-.687.473-.944.797-.452.574-.867 1.201-1.059 1.913-.115.428-.671.667-.982.252-2.597-3.481-4.633-9.173-2.586-13.364 2.348-4.802 7.783-5.381 12.381-3.994 1.495-.061 3.049-.159 4.453.26 2.156.646 3.105 2.49 4.181 4.292 1.054 1.767 2.311 3.574 4.261 4.44 2.011.893 4.215 1.026 6.376 1.246 2.043.211 4.595.737 5.756 2.639z" fill="#2F4426" data-color="3"></path>
        <path d="M148.825 99.126c-.471 1.576-.95 3.728-2.14 4.948-.787.805-1.79 1.039-2.87.68-1.65-.55-3.047-1.499-4.771-1.863-1.519-.319-3.202-.603-4.501-1.509-1.246-.866-2.118-2.022-2.873-3.322-.85-1.469-1.439-3.199-2.501-4.536-.177-.223-1.361-1.767-1.781-1.366-.463.439-.212 1.568-.083 2.097.81 3.34 3.849 5.785 6.713 7.454 1.953 1.137 4.373 2.168 5.774 4.012 1.404 1.852.926 3.869-.553 5.533-1.447 1.626-3.221 3.011-5.007 4.244-2.06 1.422-4.282 2.79-6.716 3.465-5.32 1.477-7.101-4.586-8.58-8.421-.498-1.294-1.011-2.663-1.872-3.768-.417-.534-.96-1.212-1.616-1.459-.591-.223-.591.569-.602.994-.086 3.327 1.607 5.905 3.694 8.331 1.436 1.671 4.889 4.018 3.067 6.534-1.821 2.514-5.151 3.545-7.917 4.653-1.45.582-2.814 1.294-4.226 1.95-.704.327-1.69.739-2.45.308-2.603-1.469-2.099-5.107-3.02-7.605-1.353.896.65 5.174.802 6.29.305 2.224-.949 3.63-3.065 4.145-1.281.311-2.594.444-3.886.707-1.337.274-2.386.909-3.565 1.565-1.744.973-4.09 1.685-5.421-.33-1.158-1.751-1.573-3.877-2.006-5.897-.425-1.98-.843-4.273.158-6.17.839-1.6 2.255-2.678 3.552-3.893.661-.622 5.055-5.222 2.637-5.689-.013-.003-.027-.011-.04-.013-3.354.959-6.264 3.149-8.163 6.053-.251.385-.829.231-.995-.136-1.353-3.011-2.236-6.494-1.225-9.742.944-3.027 3.284-5.277 6.076-6.699 1.527-.779 3.124-1.275 4.745-1.818.594-.199 1.576-.428 1.953-.973.738-1.06-1.624-1.076-2.068-1.039-4.648.385-8.417 2.785-12.335 5.099-.348.207-.907.096-.933-.393-.233-4.517-.11-8.812 3.402-12.112 2.996-2.811 7.259-5.19 11.493-5.15.965.008 1.926.077 2.854.359.816.25 1.517.752 2.276 1.127.417.202 1.037.582 1.522.47.795-.183.615-1.233.251-1.669-.591-.704-1.406-1.246-2.27-1.568-2.512-.938-5.643-.316-8.117.454-2.471.771-4.831 1.818-7.24 2.758-.399.154-.776-.175-.741-.579.147-1.656.551-3.287 1.048-4.871 1.926-6.133 9.342-20.74 17.561-13.632 1.763 1.523 3.338 3.258 5.136 4.743.441.367 1.134 1.193 1.669.67.495-.484.126-1.185-.214-1.645-1.18-1.602-2.918-2.803-4.544-3.925-.993-.683-2.541-1.363-3.26-2.365-.193-.266-.118-.555.101-.771 4.167-4.055 13.537-5.766 17.669-.739 1.859 2.261 1.583 4.552 1.578 7.281 0 .983-.035 2.434.265 3.571.152.266.326.513.497.763a.593.593 0 0 1 .487.074c2.685 1.656 5.999-.348 8.468-1.557 2.268-1.113 4.619-2.179 7.197-2.192 4.295-.019 6.922 3.789 8.441 7.308 1.798 4.169 2.854 8.822 3.536 13.297.396 2.598.294 4.96-.455 7.479z" fill="#4D705D" data-color="2"></path>
        <path d="M65.321 62.633c-1.974 4.967-7.005 9.864-12.782 8.95-.337-.053-.5-.335-.489-.654.051-1.392.634-2.79 1.035-4.111.222-.725 1.458-3.842.564-4.478-1.621-1.151-2.348 3.715-2.405 4.682-.067 1.19.267 2.734-.262 3.858-.479 1.018-1.364 1.584-2.42 1.913-1.407.438-2.996.377-4.451.276-1.337-.09-2.752-.128-4.06-.444-2.124-.513-2.675-1.921-2.33-3.991.262-1.578 1.241-3 1.281-4.64.008-.303.096-.313-.045-.25-.222.098-.42.191-.527.425-.241.518-.375 1.066-.473 1.624-.209 1.164-.324 2.349-.647 3.489-.65 2.306-3.335 3.943-5.668 3.962-2.854.021-5.475-1.177-8.126-2.073-.329-.109-.46-.601-.227-.858.837-.919 1.768-1.746 2.669-2.602.851-.811 2.445-2.028 2.621-3.284.169-1.188-2.466.112-2.918.438-.941.68-1.637 1.57-2.402 2.429-1.321 1.472-2.736 2.442-4.79 1.993-2.183-.478-4.226-1.385-6.352-2.041-.607-.186-.289-1.063.284-1.012 3.172.282 4.707-3.364 6.242-5.519a82.31 82.31 0 0 1 6.09-7.573c1.477-1.626 2.717-3.779 4.978-4.39 2.225-.603 4.456.694 6.7.959-.714-.794-1.69-1.278-2.768-1.541-.433-.104-.682-.683-.256-.981 2.669-1.865 5.574-3.569 8.62-4.751 2.402-.933 6.334-2.243 8.535-.146.942.896 1.401 1.996 1.434 3.282.027 1.188-.284 2.841.238 3.949.345.731 1.778-.678 1.936-1.052.393-.925.129-1.913-.232-2.809-.623-1.539-1.653-3.029-1.851-4.703-.032-.274.187-.619.492-.616 3.694.029 9.417 1.541 10.661 5.556.583 1.884.008 3.029-1.075 4.557-.535.757-1.145 1.504-1.565 2.33a1.69 1.69 0 0 0-.075.157c1.993.151 3.897.922 4.911 2.798 1.143 2.114.755 4.748-.095 6.892z" fill="#4D705D" data-color="2"></path>
        <path d="M106.632 95.816c4.126-6.707 9.291-12.738 14.922-18.292.15-.149-.042-.416-.206-.267-3.683 3.336-7.189 6.705-10.336 10.565a67.95 67.95 0 0 0-3.86 5.236c-.985-.988-2.689-1.561-3.937-1.891-2.048-.541-4.152-.672-6.263-.58-4.003.174-8.204 1.282-11.442 3.679-.176.13.023.37.202.262 3.143-1.89 7.007-2.734 10.624-3.029a20.878 20.878 0 0 1 5.792.323c.907.182 1.782.477 2.627.848.69.303 1.259.773 1.889 1.152a67.335 67.335 0 0 0-3.842 6.756c-.681 1.377-1.367 2.752-2.047 4.129-2.422-.125-5.187.856-7.34 1.692-2.398.932-5.208 2.374-6.658 4.571-.08.121.056.264.18.18 2.227-1.517 4.237-3.009 6.783-4 1.372-.534 2.805-.917 4.245-1.219.784-.164 1.587-.245 2.376-.385-1.371 2.795-2.702 5.608-3.882 8.492-1.673 4.09-3.644 9.004-3.168 13.505.021.197.287.179.33.005.553-2.266.911-4.565 1.556-6.812.656-2.289 1.478-4.523 2.381-6.726 1.222-2.983 2.622-5.888 4.055-8.777a.215.215 0 0 0 .111-.223c.61-1.228 1.225-2.453 1.835-3.679a70.238 70.238 0 0 1 2.489-4.552c.155 1.238.693 2.449 1.203 3.559.938 2.039 2.024 3.952 2.583 6.141 1.114 4.366 1.484 9.298.694 13.748-.052.29.398.352.453.066.831-4.369.778-8.651-.09-13.02-.81-4.064-3.306-7.439-4.259-11.457z" fill="#93C080" data-color="1"></path>
        <path d="M102.527 105.883c-.046 1.555.212 3.079.438 4.614.244 1.663.348 3.35.691 4.998.032.157.254.169.286.004.575-3.019.061-6.805-1.023-9.663-.069-.178-.386-.16-.392.047z" fill="#93C080" data-color="1"></path>
        <path d="M100.981 97.47c.529.049 1.061.175 1.593.143.186-.011.239-.261.102-.367-.901-.7-2.479-.616-3.543-.442-.283.046-.297.453-.007.5.613.101 1.237.109 1.855.166z" fill="#93C080" data-color="1"></path>
        <path d="M110.569 94.183a23.48 23.48 0 0 1 2.081 3.446c.549 1.107.839 2.341 1.431 3.419.138.252.506.174.494-.125-.104-2.611-1.937-5.166-3.637-7.02-.2-.216-.549.036-.369.28z" fill="#93C080" data-color="1"></path>
        <path d="M118.902 93.704c-1.785-1.645-3.469-3.343-5.158-5.082-.127-.131-.392-.021-.302.171.817 1.74 2.244 3.133 3.593 4.475 1.762 1.751 3.549 3.405 4.979 5.444a66.895 66.895 0 0 1 3.965 6.354c1.205 2.21 2.078 4.571 3.239 6.795.136.261.575.191.53-.134-.643-4.626-3.733-9.117-6.322-12.898-1.318-1.927-2.808-3.543-4.524-5.125z" fill="#93C080" data-color="1"></path>
        <path d="M90.222 77.026c4.441.232 8.825-.524 13.029 1.339 1.791.793 3.349 2.116 4.771 3.431.814.753 1.562 1.57 2.306 2.39.488.537.901 1.124 1.546 1.472.274.149.496-.178.425-.415-.478-1.615-2.445-3.126-3.646-4.258-1.492-1.407-3.154-2.647-5.01-3.539-4.103-1.972-9.069-1.382-13.417-.753-.182.026-.202.322-.004.333z" fill="#93C080" data-color="1"></path>
        <path d="M104.73 86.502c-.323-.04-.439.399-.151.535.616.291 1.266.506 1.896.766.627.259 1.229.563 1.882.751.171.049.376-.134.234-.3-.892-1.035-2.531-1.586-3.861-1.752z" fill="#93C080" data-color="1"></path>
        <path d="M114.636 71.246c1.658 2.646 2.153 5.404 2.189 8.467.002.173.264.194.324.046 1.107-2.709-.004-5.915-1.422-8.317-1.664-2.818-3.875-4.987-6.471-6.945-.181-.136-.389.132-.215.276 2.177 1.798 4.102 4.09 5.595 6.473z" fill="#93C080" data-color="1"></path>
        <path d="M110.594 76.178c1.703 1.527 1.515 3.924 2.317 5.883.061.147.325.138.331-.039.067-2.114-.614-4.871-2.329-6.253-.264-.212-.566.188-.319.409z" fill="#93C080" data-color="1"></path>
        <path d="M116.96 85.056c2.435.631 3.614 2.631 5.223 4.325.159.168.406.024.345-.196-.645-2.319-3.137-4.305-5.502-4.579-.3-.035-.345.378-.066.45z" fill="#93C080" data-color="1"></path>
        <path d="M144.162 99.968c-.77-2.448-2.3-4.832-3.695-6.969-1.61-2.466-3.445-4.776-5.548-6.846-3.858-3.797-9.346-6.747-14.777-4.661-.17.065-.103.342.08.311 5.718-.968 10.559 1.56 14.48 5.538 1.953 1.981 3.627 4.235 5.149 6.554 1.352 2.059 2.442 4.322 3.859 6.33.179.256.536.011.452-.257z" fill="#93C080" data-color="1"></path>
        <path d="M129.437 78.886c2.183.187 4.298.602 6.278 1.565 2.036.989 3.32 2.642 5.051 4.004.145.114.399-.051.304-.229-2.186-4.08-7.275-5.552-11.557-5.851-.333-.023-.411.483-.076.511z" fill="#93C080" data-color="1"></path>
        <path d="M130.144 89.796c-.19-.15-.486.126-.308.305a48.505 48.505 0 0 1 2.063 2.192c.722.826 1.303 1.782 2.062 2.572.144.149.398.025.324-.183-.687-1.941-2.559-3.638-4.141-4.886z" fill="#93C080" data-color="1"></path>
        <path d="M97.637 120.471c.291 1.708-.206 3.529.237 5.193.068.254.397.137.451-.054.446-1.593.226-3.615-.134-5.203-.077-.341-.615-.294-.554.064z" fill="#93C080" data-color="1"></path>
        <path d="M64.268 32.487c.559 1.063 1.228 2.099 1.674 3.218.535 1.339.067 2.7.056 4.098-.013 1.642.351 3.112.941 4.634.407 1.052.875 2.392 1.8 3.122 1.963 1.555 4.389-.885 5.965-1.956 2.241-1.517 6.143-3.096 8.874-2.065-1.177 2.368-5.018 2.54-7.294 2.968-1.979.375-5.17.896-5.47 3.383-.34 2.83 1.661 5.862 3.143 8.11 1.583 2.405 3.359 4.882 5.55 6.787.238.207.653.138.832-.109.936-1.305 2.099-2.5 3.303-3.563.928-.821 2.76-2.655 4.17-2.325 2.038.473-.559 3.733-1.145 4.347-1.284 1.345-2.832 2.679-4.531 3.484-.302.143-.417.452-.31.76 2.271 6.463 8.367 10.972 13.649 14.95 1.752 1.318 4.258 3.298 6.609 2.227 2.07-.943 3.306-2.782 5.686-3.183a.594.594 0 0 0 .498-.51c.211-1.868 2.501-3.117 3.702-4.363.931-.967 2.116-2.628 1.364-4.044-.508-.957-1.548-1.65-2.391-2.291-1.185-.904-2.413-1.759-3.546-2.729-.463-.396-1.177-.904-1.386-1.509-.018-.056-.056-.032.161-.093.39-.114.837-.114 1.241-.101 3.426.128 5.269 2.846 8.126 4.257.815.401 1.894.901 2.797.484.69-.316.926-1.228 1.132-1.876.808-2.548 2.343-4.682 3.322-7.143.687-1.733.754-3.529-.679-4.913-2.426-2.344-6.302-3.16-9.42-4.164-.941-.306-1.961-.539-2.849-.978-.094-.045-.529-.385-.671-.29.313-.213.714-.332 1.078-.407 1.626-.34 3.268-.298 4.892.043 3.375.704 6.609 2.296 9.142 4.629.147.135.391.141.564.072.102-.043.209-.093.297-.157 1.177-.837 1.557-2.742 1.88-4.037.559-2.251.917-4.56 1.134-6.869.136-1.432.439-3.173.062-4.592-.449-1.698-2.958-2.03-4.405-2.179-2.338-.245-4.739-.21-7.077.045-1.367.149-2.501.773-3.667 1.469-.73.433-1.605 1.068-2.471 1.206-.821.133-1.391-.096-.818-.869 3.726-5.014 11.889-4.642 16.957-2.097.278.141.597-.05.717-.303 1.79-3.731-1.661-8.11-3.843-10.895-1.254-1.597-2.747-3.625-4.611-4.56-1.709-.858-4.108-.481-5.352 1.084-.813 1.026-4.21 7.536-5.545 4.172-.669-1.687 1.698-3.234 2.873-4.012 1.3-.861 2.707-1.533 4.017-2.368.297-.189.302-.725-.003-.911-4.105-2.498-9.655-4.618-14.298-2.184-2.041 1.071-3.876 2.628-3.929 5.086-.013.656.088 1.757.075 2.881-.136.287-.273.577-.406.866-.011.027.027.04.043.016.12-.221.24-.444.358-.667-.032 1.233-.219 2.458-.867 3.13-.297.005-.597-.043-.835-.239-1.642-1.342-1.367-4.48-2.083-6.356-.885-2.317-2.153-4.882-4.224-6.386-2.051-1.491-4.472-1.674-6.606-.239-1.492 1.007-2.782 1.56-4.625 1.262-1.139-.181-2.046-.122-3.073.441-1.656.909-4.547 3.534-4.109 5.679.428 2.097 3.317 2.551 5.053 3.122 1.8.59 3.504 1.368 5.242 2.121 1.137.489 2.324.967 3.373 1.632.297.189.696.399.891.702.257.396-.92.712-1.099.723-2.6.165-4.801-1.52-6.828-2.881-2.306-1.549-4.809-2.041-7.481-2.62-1.955-.425-4.702-1.111-5.965.996-1.142 1.903-.278 4.026.669 5.827z" fill="#2F4426" data-color="3"></path>
        <path d="M71.282 35.424c2.34-.052 4.689.121 7.032.111 2.527-.011 5.051-.099 7.577.006 4.614.192 9.18 1.221 12.732 4.189a101.99 101.99 0 0 0-2.403-8.515c-.025-.073.073-.113.11-.046 1.939 3.482 2.937 7.295 3.75 11.172.257 1.225.491 2.455.71 3.689 1.146-.983 3.062-1.292 4.505-1.502 1.906-.277 3.869-.164 5.774.05 1.919.216 3.816.621 5.701 1.029 1.771.383 3.753.659 5.427 1.364.155.065.144.327-.041.34-1.532.106-3.132-.344-4.628-.629-1.895-.36-3.776-.759-5.688-1.019-1.839-.251-3.692-.351-5.544-.204-.849.067-1.689.226-2.516.423-.968.23-1.838.748-2.812.921-.015.003-.026-.001-.04.001a182.253 182.253 0 0 1 1.354 9.48c.007-.001.013-.005.02-.005 1.06-.116 2.214.568 3.149.994 1.262.575 2.476 1.254 3.661 1.971 2.404 1.453 4.87 3.273 6.429 5.642.166.252-.168.509-.372.286-1.811-1.979-3.95-3.611-6.224-5.031a36.244 36.244 0 0 0-3.819-2.069c-.869-.407-2.002-.647-2.78-1.229.404 3.518.703 7.048.826 10.588.145 4.171.206 8.603-.778 12.683-.069.288-.486.253-.467-.054.254-4.193.617-8.307.481-12.519-.113-3.483-.429-6.956-.832-10.418-.807 1.196-2.005 2.209-2.982 3.252a66.142 66.142 0 0 0-3.226 3.694 39.475 39.475 0 0 0-2.814 3.993c-.912 1.472-1.52 3.133-2.493 4.563-.149.219-.481.055-.46-.184.273-3.146 2.739-6.282 4.639-8.667 1.112-1.397 2.326-2.713 3.583-3.983 1.117-1.129 2.282-2.464 3.687-3.238a229.22 229.22 0 0 0-.204-1.665 162.347 162.347 0 0 0-1.254-8.281c-8.979-1.352-17.07 4.856-22.688 11.109-.15.168-.464.021-.362-.205.815-1.787 2.37-3.268 3.828-4.553 1.935-1.706 4.104-3.147 6.371-4.38 3.524-1.919 8.73-4.033 12.765-2.457a124.057 124.057 0 0 0-1.25-6.008c-4.151-2.424-8.495-3.591-13.332-3.761-4.623-.162-9.626.642-14.146-.545-.191-.051-.15-.379.044-.383z" fill="#93C080" data-color="1"></path>
        <path d="M97.339 72.775a66.783 66.783 0 0 0 2.641-4.467c.141-.259.566-.103.436.175-.693 1.473-1.388 2.944-2.208 4.353-.79 1.357-1.589 2.924-2.851 3.904-.192.149-.48-.06-.381-.287.575-1.322 1.58-2.472 2.363-3.678z" fill="#93C080" data-color="1"></path>
        <path d="M105.162 71.211c.517.479.825 1.127 1.159 1.738.394.719.82 1.472 1.072 2.253.091.282-.248.492-.451.262-.509-.576-.858-1.287-1.235-1.951-.368-.648-.784-1.337-.941-2.07-.043-.203.238-.379.396-.232z" fill="#93C080" data-color="1"></path>
        <path d="M108.24 54.944c2.972.339 5.831 1.456 8.144 3.349.227.186-.046.545-.278.361-2.359-1.869-5.219-2.322-7.947-3.394-.175-.068-.105-.337.081-.316z" fill="#93C080" data-color="1"></path>
        <path d="M104.385 51.798c-.505.013-1.045.118-1.539-.007-.167-.042-.308-.286-.113-.406 1.002-.616 2.65-.309 3.741-.123.389.066.325.644-.071.606a17.206 17.206 0 0 0-2.018-.07z" fill="#93C080" data-color="1"></path>
        <path d="M97.605 52.582c.244-.131.475.264.245.416-1.083.715-2.093 1.544-3.045 2.422-.966.89-1.739 1.958-2.687 2.858-.149.141-.381-.06-.309-.232 1.002-2.404 3.569-4.272 5.796-5.464z" fill="#93C080" data-color="1"></path>
        <path d="M98.472 42.566c.168.046.094.322-.075.293-1.695-.289-3.449-.351-5.165-.317-1.499.029-2.973.349-4.47.369-.217.003-.234-.319-.057-.393 2.98-1.261 6.746-.773 9.767.048z" fill="#93C080" data-color="1"></path>
        <path d="M92.583 34.19a21.651 21.651 0 0 0-2.164-1.361c-.793-.429-1.646-.837-2.293-1.473-.163-.16-.03-.43.203-.354.948.308 1.842.807 2.698 1.31.725.426 1.456.888 1.872 1.634.107.192-.161.354-.316.244z" fill="#93C080" data-color="1"></path>
        <path d="M90.306 28.777c-1.304-1.346-2.316-2.921-3.699-4.206-1.473-1.369-3.23-2.084-4.913-3.122-.194-.12-.048-.431.163-.401 3.669.516 7.346 4.312 8.631 7.622.046.119-.1.191-.182.107z" fill="#93C080" data-color="1"></path>
        <path d="M101.512 26.694a21.718 21.718 0 0 0-2.075 2.592c-.659.952-1.158 2.051-1.928 2.918-.12.135-.425.067-.37-.149.547-2.136 2.32-4.226 3.851-5.758 1.745-1.747 3.839-2.963 6.153-3.804.027-.01.042.028.017.04-2.113 1.064-4.023 2.445-5.648 4.161z" fill="#93C080" data-color="1"></path>
        <path d="M116.834 29.901c-2.681 1.129-5.781 1.3-8.573 2.106-1.542.445-3.051 1.024-4.42 1.862-1.335.817-2.295 1.953-3.308 3.111-.152.173-.401.018-.34-.193.864-2.994 4.39-4.495 7.098-5.348 2.997-.944 6.334-1.556 9.47-1.8.152-.011.223.199.073.262z" fill="#93C080" data-color="1"></path>
        <path d="M105.982 40.588c-.853.335-1.739.584-2.596.908-.805.305-1.597.73-2.442.905-.25.052-.319-.261-.173-.405 1.191-1.168 3.48-1.672 5.104-1.789.218-.016.329.294.107.381z" fill="#93C080" data-color="1"></path>
        <path d="M81.315 39.364c.171.024.188.297.005.309-1.638.106-3.225.424-4.797.893-1.494.446-2.932 1.19-4.466 1.478-.223.042-.351-.268-.17-.399 2.448-1.778 6.44-2.695 9.428-2.281z" fill="#93C080" data-color="1"></path>
        <path d="M71.104 31.347c2.124-.392 4.667.2 6.537 1.224.262.143.118.527-.176.433-2.114-.674-4.207-.811-6.354-1.255-.224-.047-.243-.359-.007-.402z" fill="#93C080" data-color="1"></path>
        <path d="M46.645 55.337c3.49-.401 7.418-.725 10.605-2.3.298-.147.213-.653-.152-.592-1.764.295-3.491.793-5.248 1.134-1.92.373-3.864.618-5.805.848l-1.065.124c-.958-3.099-3.927-5.759-6.637-7.344-.194-.113-.4.13-.219.281 2.336 1.947 4.902 4.241 5.961 7.166-2.55.292-5.099.583-7.629 1.018-.009-.004-.017-.01-.027-.014-3.099-1.206-6.975-2.105-10.206-1.026-.18.06-.104.364.083.323 2.775-.613 5.678.251 8.396 1.042l-.088.017c-6.343 1.295-11.015 5.869-16.348 9.115-.135.082-.001.317.139.241 5.473-2.964 10.458-7.109 16.638-8.493-1.527 4.145-2.873 8.529-5.539 12.129-.165.223.17.482.342.263 1.372-1.738 2.6-3.424 3.573-5.421 1.052-2.159 1.855-4.462 2.599-6.741a.5.5 0 0 0-.041-.416c2.466-.45 4.96-.733 7.453-1.002-.019.68.122 1.38.155 2.055.067 1.352-.054 2.713-.232 4.052a35.58 35.58 0 0 1-1.715 7.096c-.075.211.227.341.323.136 1.084-2.308 1.907-4.571 2.324-7.097.21-1.27.281-2.552.277-3.837-.003-.8.017-1.713-.239-2.502.774-.083 1.549-.167 2.322-.255z" fill="#93C080" data-color="1"></path>
        <path d="M37.824 53.29c.403.36.731.815 1.184 1.116.132.088.331 0 .307-.172-.156-1.137-1.475-1.882-2.426-2.296-.223-.097-.394.209-.211.357.393.317.77.659 1.146.995z" fill="#93C080" data-color="1"></path>
        <path d="M39.194 58.898c-.611.596-.911 1.562-1.207 2.341-.121.318.354.521.491.207.328-.753.893-1.559 1.001-2.381.019-.14-.166-.282-.285-.167z" fill="#93C080" data-color="1"></path>
        <path d="M47.266 57.233c-.222 1.798.148 3.697.079 5.514-.076 2.033-.4 4.283-1.256 6.143-.099.216.225.341.335.141 1.01-1.836 1.554-3.628 1.755-5.722.186-1.924.306-4.318-.451-6.131-.09-.216-.432-.186-.462.055z" fill="#93C080" data-color="1"></path>
        <path d="M46.362 49.138c.47 1.303.642 2.733 1.308 3.955.085.156.39.182.397-.047.087-2.95-1.711-6.02-3.418-8.311-.169-.227-.508.034-.349.265.889 1.284 1.534 2.674 2.062 4.138z" fill="#93C080" data-color="1"></path>
        <path d="M50.04 51.615c.036.16.237.159.28.004.485-1.751.808-3.726.657-5.542-.028-.34-.537-.273-.523.06.075 1.816-.813 3.697-.414 5.478z" fill="#93C080" data-color="1"></path>
        <path d="M50.735 57.306c.151.972.001 2.227.553 3.079.089.137.284.054.313-.081.205-.956-.043-2.122-.194-3.075-.067-.428-.739-.351-.672.077z" fill="#93C080" data-color="1"></path>
        <path d="M55.659 56.214c-.188-.133-.472.115-.3.296 2.758 2.907 1.588 6.477 2.257 9.996.049.257.407.268.46.007.646-3.218.556-8.199-2.417-10.299z" fill="#93C080" data-color="1"></path>
        <path d="M61.619 59.193c-.284-1.528-1.614-2.89-2.693-3.938-.248-.241-.67.176-.432.427.523.551.998 1.134 1.434 1.755.442.63.785 1.345 1.32 1.904.128.133.411.072.371-.148z" fill="#93C080" data-color="1"></path>
        <path d="M56.953 50.61c.886-1.941 1.367-4.557.434-6.553-.147-.315-.639-.122-.506.203.848 2.067-.073 4.163-.293 6.249-.023.214.274.301.365.101z" fill="#93C080" data-color="1"></path>
        <path d="M65.644 94.832c.04-.313-.166-.547-.46-.616-3.11-.736-5.138-3.428-7.786-5.012-2.297-1.374-5.277-1.456-7.879-1.289-3.044.194-5.635 1.562-8.147 3.202-1.211.795-2.159 1.653-2.947 2.867-.877 1.35-1.527 2.79-2.634 3.986a.488.488 0 0 0-.131.26c-.522.207-1.003.159-1.107-.553-.195-1.374.995-2.811 1.017-4.22.058-4.27-7.698-2.942-10.121-2.288-4.56 1.228-8.848 4.044-10.827 8.432-.449 1.002-.711 2.091-.85 3.178-.096.733-.396 2.455.278 2.974.837.64 1.57-.659 2.025-1.148 1.129-1.217 2.471-2.344 4.154-2.439-.519 1.509-2.102 2.575-3.335 3.47-1.511 1.097-3.081 2.102-4.411 3.417-2.685 2.66-2.835 7.815-2.102 11.27.099.473.8.67 1 .143.976-2.538 3.651-4.632 6.451-4.353 1.503.151-.77 2.121-1.126 2.439a21.337 21.337 0 0 0-2.404 2.508c-2.865 3.569-1.83 7.542-.738 11.562.286 1.044.679 3.303 2.062 3.449 1.69.178 2.102-2.413 3.506-2.748 1.123-.268.03 2.583-.088 2.918-.27.755-.54 1.52-.503 2.33.061 1.297.714 2.575 1.305 3.699.284.542.597 1.068.902 1.6.259.446.278.938.577 1.361.182.258.45.279.661.17 2.295 1.658 6.248.481 8.661-.186 2.937-.813 6.951-2.051 8.917-4.557a.623.623 0 0 0 .003-.752c-.955-1.358-2.057-2.61-2.771-4.116-.353-.741-.519-1.685-.257-2.479 0 .053.845.856 1.017 1.068 1.03 1.257 2.164 4.257 4.143 4.153 1.219-.064 2.332-.818 3.325-1.454 1.575-1.007 3.094-2.163 4.408-3.492 1.845-1.868 4.263-3.935 2.469-6.574-1.915-2.82-5.574-3.757-7.836-6.202a15.249 15.249 0 0 1-2.338-3.295c-.289-.561-.607-1.259-.417-1.897.217-.739.992.085 1.3.359.797.707 1.415 1.602 2.124 2.392 1.23 1.363 2.845 2.447 4.207 3.683 1.265 1.148 2.038 2.471 3.012 3.837.639.895 1.482 1.414 2.597 1.35 1.853-.101 3.581-2.059 4.651-3.372 1.46-1.786 2.527-3.904 3.447-6 1.541-3.508 2.758-7.427 2.712-11.288-.032-2.83-1.637-4.99-4.146-5.437 2.491-1.139 4.05-3.262 4.43-6.31zm-16.882 8.641c2.337-1.079 5.076-1.081 7.692-1.294-2.707 1.244-6.331 2.963-7.692 1.294z" fill="#2F4426" data-color="3"></path>
        <path d="M35.04 100.457c.036-.276-.375-.403-.479-.133-1.247 3.253-2.363 6.532-3.707 9.754-1.326 3.178-2.574 6.391-3.303 9.763-.249 1.15-.486 2.307-.712 3.467a.268.268 0 0 0-.108.006c-1.854.459-3.706 1.936-5.227 3.033-1.876 1.353-3.473 2.956-4.867 4.788-.144.189.142.408.293.225 1.318-1.604 3.009-2.926 4.672-4.157a36.506 36.506 0 0 1 2.555-1.716c.815-.503 1.744-.873 2.536-1.411a108.227 108.227 0 0 0-1.02 6.368c-.427 3.345-.709 6.995.156 10.285.074.28.482.137.47-.119-.163-3.549-.117-6.976.366-10.504.464-3.4 1.173-6.759 1.818-10.127.661-3.451 2.015-6.748 3.336-9.99 1.242-3.051 2.798-6.243 3.221-9.532z" fill="#93C080" data-color="1"></path>
        <path d="M34.421 119.328c-1.239-.942-2.662-2.198-4.154-2.69-.242-.08-.542.202-.334.428.913.991 2.253 1.655 3.348 2.439a38.17 38.17 0 0 1 3.614 2.938c2.43 2.236 4.014 4.924 5.862 7.607.04.058.153.019.134-.054-.751-2.935-2.767-5.467-4.879-7.586-1.114-1.118-2.334-2.126-3.591-3.082z" fill="#93C080" data-color="1"></path>
        <path d="M27.687 107.649c1.237-.212 2.591-.118 3.778-.523.129-.044.138-.256.003-.299-1.097-.349-2.324-.111-3.441.046-1.46.205-2.895.573-4.299 1.015-2.74.862-5.206 2.266-7.42 4.072-.193.157.038.46.236.307 2.089-1.615 4.544-2.739 7.034-3.594a26.317 26.317 0 0 1 4.109-1.024z" fill="#93C080" data-color="1"></path>
        <path d="M20.005 98.214c2.197-.379 4.687-.23 6.875.126 1.202.196 2.37.56 3.467 1.083 1.156.552 1.929 1.432 2.894 2.223.17.139.377-.056.318-.24-.693-2.172-3.538-3.19-5.536-3.662-2.73-.644-5.361-.365-8.04.277-.12.029-.104.214.022.193z" fill="#93C080" data-color="1"></path>
        <path d="M47.115 110.355c-3.135-2.39-7.198-4.716-11.272-4.607-.198.005-.18.291-.005.327 3.976.821 7.512 2.533 10.748 4.96 3.308 2.482 5.575 5.563 8.008 8.823.152.203.433.011.367-.208-1.126-3.771-4.816-6.985-7.846-9.295z" fill="#93C080" data-color="1"></path>
        <path d="M56.136 98.666c-2.795-1.759-7.193-.949-10.203-.305a30.06 30.06 0 0 0-5.522 1.755c-1.34.573-2.88 1.335-3.784 2.51-.091.118.04.32.187.244 3.03-1.558 5.842-2.936 9.217-3.668 3.375-.732 6.563-.674 9.951-.176.191.029.333-.247.154-.36z" fill="#93C080" data-color="1"></path>
        <path d="M21.848 115.57c-.32.172-.11.699.214.525a16.704 16.704 0 0 1 2.247-1.009c.823-.297 1.699-.409 2.519-.704.144-.052.119-.284-.036-.299-1.685-.161-3.507.715-4.944 1.487z" fill="#93C080" data-color="1"></path>
        <path d="M33.617 112.005c.676.243 1.249.644 1.794 1.102.461.387.876.904 1.438 1.146.166.071.35-.102.277-.27-.277-.634-.924-1.125-1.46-1.538a5.398 5.398 0 0 0-1.906-.952c-.295-.08-.428.41-.143.512z" fill="#93C080" data-color="1"></path>
        <path d="M30.391 124.736c-.138-.06-.249.104-.171.219.69 1.019 1.385 1.94 1.902 3.072.447.979.654 2.102 1.223 3.016.111.178.437.094.447-.115.057-1.21-.556-2.469-1.081-3.528-.505-1.018-1.236-2.193-2.32-2.664z" fill="#93C080" data-color="1"></path>
        <path d="M180.229 87.591c-1.849-.806-3.757-1.458-5.588-2.309-2.003-.931-3.927-2.022-5.796-3.194-.226-.142-.449-.289-.674-.433 1.349.265 2.73.423 4.073.73 1.682.384 3.403.801 5.132.539.167-.025.169-.259.004-.29-1.679-.318-3.365-.562-5.037-.923-1.568-.339-3.337-.857-4.948-.56-2.935-1.943-5.736-4.085-8.558-6.185.633-.215 1.263-.538 1.817-.731a39.642 39.642 0 0 1 4.6-1.306c3.303-.715 6.386-.373 9.675.174.188.031.242-.224.086-.303-2.867-1.448-6.291-1.28-9.372-.717-1.472.269-2.915.697-4.337 1.156-.908.293-2.317.557-3.283 1.124-3.01-2.223-6.072-4.374-9.335-6.22-.342-.193-.695-.39-1.054-.586 2.16-1.76 4.307-3.469 6.193-5.539 1.096-1.202 2.189-2.401 3.391-3.5 1.257-1.149 2.693-1.982 4.07-2.967.178-.127.007-.364-.179-.311-2.97.848-5.295 3.524-7.305 5.712-1.207 1.315-2.362 2.637-3.755 3.764-.988.8-2.111 1.561-2.872 2.594-3.047-1.632-6.613-3.201-9.964-3.268-.144-.003-.225.194-.073.256 1.89.768 3.909 1.228 5.815 1.973a39.256 39.256 0 0 1 3.793 1.743c-.016.095.11.176.191.11a.043.043 0 0 0 .007-.006c.588.309 1.171.627 1.748.954 2.784 1.577 5.407 3.417 7.984 5.312.213 1.039.397 2.048.446 3.117.057 1.278-.119 2.571.127 3.835.04.203.317.209.361.005.35-1.629.557-3.851.041-5.651.102.106.209.208.305.318.372.429.66.926.915 1.429.596 1.18.958 2.488 1.285 3.762.561 2.19.967 4.405 1.656 6.559.071.222.39.083.331-.133-.669-2.476-.842-5.085-1.494-7.577-.181-.693-.622-2.434-1.33-3.705 1.954 1.458 3.911 2.912 5.912 4.305.006.008.009.018.017.026.106.108.181.245.247.38.038.077.08.165.129.25a.33.33 0 0 0-.066.367c1.217 3.049 1.316 6.276 3.541 8.864.198.23.57-.046.379-.288-2.026-2.56-2.093-5.91-3.234-8.852a.354.354 0 0 0-.036-.07 77.311 77.311 0 0 0 3.084 1.998c3.264 1.996 6.996 4.051 10.85 4.567.18.028.251-.227.085-.299z" fill="#4D705D" data-color="2"></path>
        <path d="M146.669 69.985c-.082-.421-.732-.357-.673.077.291 2.122-.069 4.378.674 6.418.068.188.404.167.408-.049.042-2.133-.001-4.348-.409-6.446z" fill="#4D705D" data-color="2"></path>
        <path d="M145.28 61.103c-.769.573-.885 1.864-1.202 2.704-.122.323.349.523.496.209.388-.826 1.034-1.846 1.012-2.784-.003-.15-.198-.209-.306-.129z" fill="#4D705D" data-color="2"></path>
        <path d="M138.019 66.911c-2.765.319-6.386 1.548-8.136 3.806-.114.148.09.366.237.237 1.154-1.014 2.5-1.649 3.93-2.182 1.357-.506 2.857-.773 4.107-1.521.169-.101.038-.36-.138-.34z" fill="#4D705D" data-color="2"></path>
        <path d="M139.581 62.294c-.318-1.606-.996-3.209-1.491-4.775-.554-1.751-1.229-3.384-2.299-4.888-.15-.211-.442.027-.314.238.919 1.523 1.478 3.208 1.977 4.904.454 1.545.783 3.352 1.763 4.666.115.156.404.056.364-.145z" fill="#4D705D" data-color="2"></path>
        <path d="M141.715 52.336c-.157-.225-.561-.004-.426.242 1.358 2.488.014 5.156.444 7.768.034.212.33.214.373.006.512-2.494 1.179-5.774-.391-8.016z" fill="#4D705D" data-color="2"></path>
        <path d="M134.888 129.301c-.74-3.348-2.352-6.22-4.895-8.531-.171-.156-.38.124-.218.281 2.371 2.295 3.72 5.54 4.376 8.716.308 1.491.412 3.015.436 4.533.025 1.566-.344 3.152-.252 4.706.014.242.351.262.444.064.628-1.334.657-3.044.669-4.493a23.527 23.527 0 0 0-.56-5.276z" fill="#4D705D" data-color="2"></path>
        <path d="M127.578 122.51c-1.334 2.03-3.062 5.494-2.449 7.991.043.176.333.283.402.057.372-1.224.534-2.498.912-3.727.428-1.395 1.067-2.718 1.496-4.112.063-.209-.221-.422-.361-.209z" fill="#4D705D" data-color="2"></path>
        <path d="M130.853 125.197c-.705 2.321-1.449 4.993-1.067 7.433.043.274.392.25.46.007.658-2.352.535-4.911 1.091-7.304.066-.279-.4-.41-.484-.136z" fill="#4D705D" data-color="2"></path>
        <path d="M136.972 127.647c-.187-.167-.462.114-.308.305 1.319 1.642 1.61 3.465 2.261 5.39.065.193.356.143.384-.046.298-1.996-.871-4.344-2.337-5.649z" fill="#4D705D" data-color="2"></path>
        <path d="M136.192 116.366c-.209-.03-.253.284-.047.321 1.531.274 3.088.55 4.573 1.017 1.936.609 2.891 1.697 3.818 3.417.11.203.408.14.398-.101-.196-4.156-5.792-4.235-8.742-4.654z" fill="#4D705D" data-color="2"></path>
        <path d="M144.998 115.758c-.766-.831-2.021-1.082-3.109-1.089-.301-.002-.308.513-.008.525 1.067.042 1.923.507 2.913.826.147.047.332-.124.204-.262z" fill="#4D705D" data-color="2"></path>
        <path d="M113.853 147.41a254.738 254.738 0 0 1-.548 7.972c-.433 5.151-.795 10.346-1.642 15.419-.637 3.824-1.303 8.22-3.855 10.77-1.026 1.027-2.209 1.766-3.442 2.292-.128.055-.26.112-.394.172-1.145.552-2.393.877-3.646 1.029l-.207.025s-.739-.519-1.157-.485c-.409.033-1.323.685-1.323.685-.093.004-.188.027-.28.011-.174-.031-.812-.521-1.166-.522-.175 0-.246.537-.42.533a25.3 25.3 0 0 1-1.14-.049c-.123-.008-1.908-.662-2.141-.678-.642-.043-.502.387-.544.378a5.862 5.862 0 0 1-.473-.123c-1.798-.29-3.64-.743-5.275-1.682-1.039-.598-2.169-1.428-2.851-2.635-1.448-1.531-2.328-3.647-2.791-5.987-.661-3.33-.846-6.773-.994-10.202-.209-2.58-.3-5.173-.454-7.759-.179-2.997-.392-6-.42-9.009-.026-2.61-.122-5.542.59-8.024a.275.275 0 0 1 .055-.108c.058-.069.201.176.282.191.091-.063.23-.41.23-.41.476-.163 1.032-.039 1.519-.028.904.019 1.809.09 2.712.142 1.452-.033 2.907-.051 4.352-.169 2.696-.218 5.395-.472 8.094-.527a69.578 69.578 0 0 1 1.883-.011c1.14-.085 2.279-.168 3.419-.251 0 0 .286 1.428.407 1.419.202-.015.561-1.489.561-1.489.894-.064 1.788-.128 2.682-.19 1.953-.136 3.9-.289 5.847-.516.648-.077 1.292-.035 1.786.319.299.215.158.712.314 1.2.068.071.024.332.035.466.015.158.022.477.035.638.064.473.151.706.139 1.208.019.821.398 2.243.398 2.243-.039 1.256-.111 2.509-.177 3.742z" fill="#1D1D1B" data-color="4"></path>
        <path d="M152.009 74.902c-.06-.418-.698-.344-.654.075.207 1.977.051 4.148.798 6.021.096.239.407.121.41-.104.018-1.977-.272-4.036-.554-5.992z" fill="#4D705D" data-color="2"></path>
        <path d="M161.69 61.464c-2.612.613-4.864 2.526-6.983 4.068-.32.232.044.69.369.48 2.223-1.438 4.557-2.738 6.752-4.208.15-.101.048-.384-.138-.34z" fill="#4D705D" data-color="2"></path>
        <path d="M169.902 65.42c-1.834-.437-4.042.279-5.776.862-2.121.713-4.155 1.763-5.868 3.199-.182.153.023.407.221.287a29.153 29.153 0 0 1 5.535-2.625c1.951-.681 3.974-.769 5.939-1.299.236-.064.138-.379-.051-.424z" fill="#4D705D" data-color="2"></path>
        <path d="M153.05 88.765c-.672-1.134-1.297-2.154-1.703-3.419-.377-1.174-.577-2.396-.952-3.571-.069-.215-.404-.119-.379.096.26 2.23.449 6.06 2.79 7.209.205.101.338-.155.244-.315z" fill="#4D705D" data-color="2"></path>
        <path d="M101.827 138.375l.963-.07" fill="#FDFDFD" data-color="5"></path>
        <path d="M103.441 181.628c1.234-1.557 2.152-3.349 2.852-5.197 1.548-4.091 1.826-8.532 2.245-12.841.433-4.467.638-8.924.868-13.402a57.6 57.6 0 0 0 .089-3.899c.334.568.796 1.02 1.46 1.184 1.782.442 2.63-2.077 2.92-3.298.056-.236.11-.483.16-.737.019-.749.025-1.497.007-2.242a9.178 9.178 0 0 0-.07-1.466c-.013-.161-.019-.322-.034-.48a.476.476 0 0 0-.13-.303c-.156-.489-.4-.819-.7-1.033.153 1.649.147 3.28-.075 4.928-.086.632-.777 4.278-2.102 3.297-1.016-.752-1.154-2.937-1.325-4.058-.184-1.213-.322-2.465-.328-3.693-.003-.604-.967-.59-1.044-.016-.368 2.754-.709 6.092-2.197 8.496-.978 1.58-2.103-.074-2.546-1.218-.627-1.619-.763-3.552-.763-5.393.05-.616.092-1.165.144-1.599a.51.51 0 0 0-.082-.354l-.963.07a.554.554 0 0 0-.029.129c-.181 1.669-.308 3.333-.631 4.984-.287 1.471-.857 4.167-2.722 4.364-1.679.177-2.405-2.906-2.684-4.041-.363-1.48-.664-3.097-.654-4.625.004-.609-.986-.6-1.058-.016-.215 1.747-.359 3.486-.845 5.189-.384 1.346-1.479 3.786-3.318 2.977-1.179-.518-1.569-2.531-1.824-3.618-.298-1.271-.437-2.572-.583-3.867-.068-.607-.94-.593-1.049-.016-.53 2.814-.902 6.058-2.435 8.537-1.077 1.742-2.262.253-2.935-1.057-1.227-2.388-.947-5.477-1.222-8.092a1.141 1.141 0 0 0-.281.137.232.232 0 0 0-.228.081c-.333 2.86-.571 6.154.93 8.729.774 1.328 2.146 2.917 3.775 1.852 1.437-.94 1.957-3.269 2.378-4.788.154-.556.284-1.115.403-1.676l.018.108c-.635 7.845-.684 15.758-.242 23.606.19 3.366.418 6.745 1.198 10.036.609 2.571 1.744 5.867 4.01 7.488.059.06.124.116.188.174.905.199 1.847.24 2.643.293l.148.008a4.55 4.55 0 0 1-.584-.149c-.623-.211-1.193-.547-1.782-.831-2.448-1.906-3.382-5.771-3.916-8.624-.571-3.044-.699-6.159-.855-9.245-.194-3.853-.351-7.665-.243-11.526.078-2.78.289-5.629.196-8.441.485 1.082 1.208 1.91 2.314 2.135 2.301.47 3.602-1.301 4.328-3.511-.204 2.648-.23 5.323-.366 7.968-.191 3.73-.377 7.46-.446 11.195-.067 3.624.008 7.246.347 10.856.249 2.653.497 5.562 1.288 8.178.074.722.308 1.468.728 2.035.527.011 1.056.008 1.585-.01-.478-.281-.794-.584-1.048-1.006-1.637-6.657-1.905-13.54-1.796-20.364.057-3.579.236-7.156.392-10.731.106-2.421.293-4.896.244-7.343.518 1.492 1.488 3.19 3.213 3.171 1.705-.019 2.711-1.264 3.328-2.924-.138.935-.137 1.9-.145 2.83-.016 1.967.107 3.925.036 5.892-.154 4.306-.569 8.597-.741 12.898-.123 3.078-.005 6.156-.299 9.227-.151 1.583-.429 3.17-.943 4.679a10.525 10.525 0 0 1-1.04 2.198c-.297.472-.72.834-.918 1.358a.405.405 0 0 0-.023.105 34.15 34.15 0 0 0 2.49-.2c1.29-.912 2.444-2.359 3.319-3.462zm-4.221 2.855c.435-.564.865-1.125 1.181-1.811.644-1.401.973-2.952 1.2-4.467.48-3.197.367-6.454.453-9.675.111-4.169.558-8.333.686-12.508.096-3.144-.184-6.268-.105-9.4.613 1.278 1.968 2.739 3.39 1.904 1.481-.869 1.953-3.142 2.339-4.657.043-.168.08-.337.119-.506.378.806.069 2.351.026 3.145-.078 1.415-.193 2.827-.286 4.24-.277 4.227-.527 8.441-.931 12.66-.713 7.424-1.498 16.306-8.072 21.075z" fill="#FDFDFD" data-color="5"></path>
    </g>
</svg>