<svg xmlns:xlink="http://www.w3.org/1999/xlink" preserveAspectRatio="xMidYMid meet" data-bbox="32.401 29.2 135.199 141.6" viewBox="32.401 29.2 135.199 141.6" height="200" width="200" xmlns="http://www.w3.org/2000/svg" data-type="color" role="presentation" aria-hidden="true"><defs><style>#comp-kv5nqb4q svg [data-color="1"] {fill: #7A8F56;}</style></defs>
    <g>
        <path d="M71.165 108.598c-6.134-8.559-9.374-18.672-9.374-29.248 0-27.653 22.414-50.15 49.965-50.15s49.965 22.497 49.965 50.15a50.044 50.044 0 0 1-3.634 18.806l-5.448-2.213a44.2 44.2 0 0 0 3.203-16.594c0-24.399-19.776-44.25-44.087-44.25S67.669 54.951 67.669 79.35c0 9.331 2.859 18.253 8.266 25.802l-4.77 3.446z" fill="#7A8F56" data-color="1"></path>
        <path d="M81.504 149.286l-4.156-4.171.367-.389c1.188-1.282 3.174-3.425 7.589-3.425h40.861c3.332-1.397 18.235-15.872 21.607-19.665 1.846-2.079 9.899-14.188 13.292-20.899-1.596-.92-4.323-1.557-7.494-.812-3.812.889-6.378 3.578-9.808 10.275-.278.544-.72.988-1.26 1.27l-13.473 7.022-2.709-5.237 12.649-6.593c3.49-6.632 7.023-11.028 13.269-12.484 6.9-1.606 12.5.981 14.782 4.065.623.841.755 1.953.344 2.918-2.864 6.721-12.893 21.799-15.207 24.404-.192.217-20.229 21.637-25.706 21.637H85.304c-1.854 0-2.394.58-3.284 1.543l-.516.541z" fill="#7A8F56" data-color="1"></path>
        <path d="M120.574 129.5H97.061v-5.9h23.513c4.061 0 5.878-2.223 5.878-4.425s-1.817-4.425-5.878-4.425h-15.528c-2.081 0-3.921-1.415-6.053-3.054-1.475-1.134-3.703-2.846-4.871-2.846H79.426c-2.819 0-7.038 2.57-9.753 5.108l-11.682 11.728-4.156-4.171 11.756-11.8c3.375-3.159 8.958-6.764 13.835-6.764h14.696c3.16 0 5.967 2.158 8.444 4.062.89.684 2.233 1.717 2.727 1.865l15.281-.027c7.718 0 11.756 5.194 11.756 10.325 0 5.13-4.038 10.324-11.756 10.324z" fill="#7A8F56" data-color="1"></path>
        <path d="M70.609 170.8a2.924 2.924 0 0 1-2.078-.864l-35.269-35.4a2.956 2.956 0 0 1 0-4.171l14.696-14.75a2.93 2.93 0 0 1 4.156 0l35.269 35.4a2.956 2.956 0 0 1 0 4.171l-14.696 14.75a2.924 2.924 0 0 1-2.078.864zm-31.114-38.35l31.113 31.229 10.54-10.579-31.113-31.229-10.54 10.579z" fill="#7A8F56" data-color="1"></path>
        <path fill="#7A8F56" d="M53.835 140.436l-5.878-5.9 4.156-4.172 5.878 5.9-4.156 4.172z" data-color="1"></path>
        <path d="M158.782 82.3h-17.635a2.931 2.931 0 0 1-2.078-.864L128.174 70.5h-19.357a2.943 2.943 0 0 1-2.939-2.95v-5.9c0-6.506 5.273-11.8 11.756-11.8h7.6l5.017-5.036a2.931 2.931 0 0 1 2.078-.864h11.756v5.9h-10.54l-5.017 5.036a2.931 2.931 0 0 1-2.078.864h-8.817c-3.24 0-5.878 2.646-5.878 5.9v2.95h17.635c.781 0 1.527.311 2.078.864L142.364 76.4h16.418v5.9z" fill="#7A8F56" data-color="1"></path>
        <path d="M126.452 105.9h-5.878v-1.729L116.418 100h-4.661c-3.24 0-5.878-2.646-5.878-5.9v-5.9c0-6.506 5.273-11.8 11.756-11.8h11.771c.781 0 1.527.311 2.081.866l11.742 11.8c.548.553.858 1.302.858 2.084v5.9h-5.878v-4.679L128.186 82.3h-10.551c-3.24 0-5.878 2.646-5.878 5.9v5.9h5.878c.781 0 1.527.311 2.078.864l5.878 5.9c.551.553.861 1.304.861 2.086v2.95z" fill="#7A8F56" data-color="1"></path>
        <path d="M70.609 85.25H64.73v-5.9h4.661l4.156-4.171V73.45c0-.782.31-1.533.861-2.086l5.878-5.9a2.931 2.931 0 0 1 2.078-.864h2.939v-5.9a2.947 2.947 0 0 0-2.939-2.95h-8.817v-5.9h8.817c4.862 0 8.817 3.97 8.817 8.85v8.85a2.944 2.944 0 0 1-2.939 2.95h-4.661l-4.156 4.171V76.4c0 .782-.31 1.533-.861 2.086l-5.878 5.9a2.929 2.929 0 0 1-2.077.864z" fill="#7A8F56" data-color="1"></path>
        <path d="M84.443 102.086l-4.156-4.171 5.017-5.036v-.507L81.148 88.2h-.505l-5.017 5.036-4.156-4.171 5.878-5.9a2.931 2.931 0 0 1 2.078-.864h2.939c.781 0 1.527.311 2.078.864l5.878 5.9c.551.553.861 1.304.861 2.086v2.95c0 .782-.31 1.533-.861 2.086l-5.878 5.899z" fill="#7A8F56" data-color="1"></path>
    </g>
</svg>