<svg xmlns:xlink="http://www.w3.org/1999/xlink" preserveAspectRatio="xMidYMid meet" data-bbox="35.5 16.462 128.976 166.938" viewBox="35.5 16.462 128.976 166.938" height="200" width="200" xmlns="http://www.w3.org/2000/svg" data-type="color" role="presentation" aria-hidden="true"><defs><style>#comp-kwz1qgc2 svg [data-color="1"] {fill: #242323;}</style></defs>
    <g>
        <path d="M123.6 70.6l-2.4 7.7c-.3 1 .3 2 1.2 2.4.2.1.4.1.6.1.8 0 1.5-.6 1.8-1.3l2.4-7.7c.3-1-.3-2-1.2-2.4-1-.3-2.1.1-2.4 1.2z" fill="#242323" data-color="1"></path>
        <path d="M113.4 52.5c1.7 9.2 9.8 15.7 18.8 15.7 1.1 0 2.4-.1 3.5-.4 10.4-1.9 17.3-12 15.3-22.5-1.9-10.5-11.9-17.4-22.4-15.4-10.3 2-17.1 12.2-15.2 22.6zm16.1-18.8c8.4-1.6 16.4 4 18 12.4 1.6 8.4-4 16.5-12.3 18.1-8.4 1.6-16.4-4-18-12.4-1.7-8.4 3.8-16.4 12.3-18.1z" fill="#242323" data-color="1"></path>
        <path d="M136.2 70.1c-1.1.2-1.7 1.2-1.5 2.2l1.5 7.9c.2.9 1 1.5 1.8 1.5h.4c1.1-.2 1.7-1.2 1.5-2.2l-1.5-7.9c-.2-1-1.1-1.7-2.2-1.5z" fill="#242323" data-color="1"></path>
        <path d="M126.2 26.6c.2.9 1 1.5 1.8 1.5h.4c1.1-.2 1.7-1.2 1.5-2.2l-1.5-7.9c-.2-1.1-1.1-1.7-2.2-1.5-1.1.2-1.7 1.2-1.5 2.2l1.5 7.9z" fill="#242323" data-color="1"></path>
        <path d="M149.6 35.6c.5 0 .9-.2 1.2-.5l6-5.4c.8-.7.9-1.8.2-2.7-.7-.8-1.8-.9-2.7-.2l-6 5.4c-.8.7-.9 1.8-.2 2.7.5.5.9.7 1.5.7z" fill="#242323" data-color="1"></path>
        <path d="M139.2 28.9c.2.1.5.1.6.1.8 0 1.5-.6 1.8-1.2l2.7-7.6c.4-1-.2-2-1.1-2.4-1-.4-2 .2-2.4 1.2l-2.7 7.6c-.4.9.1 1.9 1.1 2.3z" fill="#242323" data-color="1"></path>
        <path d="M114.9 33.7c.4.4.9.6 1.3.6.5 0 1-.2 1.3-.6.7-.7.8-1.9 0-2.7l-5.5-5.8c-.7-.7-1.9-.8-2.7 0-.7.7-.8 1.9 0 2.7l5.6 5.8z" fill="#242323" data-color="1"></path>
        <path d="M162.3 57l-7.6-2.5c-1-.4-2 .2-2.4 1.2-.4 1 .2 2 1.2 2.4l7.6 2.5c.2.1.4.1.6.1.8 0 1.5-.6 1.8-1.3.4-1.1-.2-2.2-1.2-2.4z" fill="#242323" data-color="1"></path>
        <path d="M114.1 63.4l-5.8 5.5c-.8.7-.8 1.8-.1 2.7.4.4.9.6 1.4.6.5 0 .9-.2 1.3-.6l5.8-5.5c.8-.7.8-1.8.1-2.7-.7-.6-1.9-.7-2.7 0z" fill="#242323" data-color="1"></path>
        <path d="M149 64.8c-.7-.8-1.8-.8-2.7-.1-.8.7-.8 1.8-.1 2.7l5.4 6c.4.5.9.6 1.4.6.5 0 .9-.2 1.2-.6.8-.7.8-1.8.1-2.7l-5.3-5.9z" fill="#242323" data-color="1"></path>
        <path d="M164.4 42.4c-.2-1.1-1.2-1.7-2.2-1.5l-7.8 1.6c-1.1.2-1.7 1.2-1.5 2.2.2.9 1 1.5 1.8 1.5h.4l7.8-1.6c1.2-.2 1.8-1.2 1.5-2.2z" fill="#242323" data-color="1"></path>
        <path d="M101.9 42.1l7.6 2.2c.2.1.4.1.6.1.8 0 1.6-.6 1.8-1.3.3-1-.3-2-1.2-2.3l-7.7-2.2c-1-.3-2 .3-2.3 1.2-.3.9.2 2 1.2 2.3z" fill="#242323" data-color="1"></path>
        <path d="M102 58.2c.2 0 .3 0 .5-.1l7.8-1.8c1-.3 1.6-1.2 1.4-2.3-.3-1-1.2-1.6-2.3-1.4l-7.8 1.8c-1 .3-1.6 1.2-1.4 2.3.2.8 1 1.5 1.8 1.5z" fill="#242323" data-color="1"></path>
        <path d="M82.5 169.2l9.4-4.7 6.5 6.5 42.5-21.3-55-55.4-42.5 21.3 20.8 20.9v16.7H51.1v26H35.5v4.2h115v-4.2H92.6l-10.1-10zm-3.1-3.2L68 154.6v-14l20.7 20.9-9.3 4.5zm6.5-32.6l-10.1-10.2 9.4-4.7 10.1 10.2-9.4 4.7zm12.5-1.8l10.1 10.2-9.3 4.8-10.1-10.2 9.3-4.8zm-3.2 16.7l-9.4 4.7-10.1-10.2 9.4-4.7 10.1 10.2zm3.7 17.7l-10.1-10.2 9.4-4.7 10.1 10.2-9.4 4.7zm12.9-6.5l-10.1-10.2 9.4-4.7 10.1 10.2-9.4 4.7zm22.4-11.2l-9.4 4.7-10.1-10.2 9.4-4.7 10.1 10.2zm-13-13.1l-9.4 4.7-10.1-10.2 9.4-4.7 10.1 10.2zm-13.1-13l-9.4 4.7-10.1-10.2L98 112l10.1 10.2zM85.3 99l10.1 10.2-9.4 4.7-10.1-10.2 9.4-4.7zm-12.9 6.5l10.1 10.2-9.4 4.7L63 110.2l9.4-4.7zM50 116.7l9.4-4.7 10.1 10.3-9.3 4.7L50 116.7zm13 13l9.4-4.7 10.1 10.2-9.4 4.7L63 129.7zm-7.7 49.6v-21.9h10.1l21.8 21.9H55.3z" fill="#242323" data-color="1"></path>
    </g>
</svg>