<svg xmlns:xlink="http://www.w3.org/1999/xlink" preserveAspectRatio="xMidYMid meet" data-bbox="36 29.5 128 141" viewBox="36 29.5 128 141" height="200" width="200" xmlns="http://www.w3.org/2000/svg" data-type="color" role="presentation" aria-hidden="true"><defs><style>#comp-kvtv3bmm svg [data-color="1"] {fill: #242323;}</style></defs>
    <g>
        <path d="M160 56.1h-29.333v-9.3c0-9.539-7.776-17.3-17.334-17.3H86.667c-9.558 0-17.334 7.761-17.334 17.3v9.3H40a4 4 0 0 0 0 8h9.333v89.1c0 9.539 7.776 17.3 17.334 17.3h66.666c9.558 0 17.334-7.761 17.334-17.3V64.1H160a4 4 0 0 0 0-8zm-82.667-9.3c0-5.128 4.188-9.3 9.334-9.3h26.666c5.146 0 9.334 4.172 9.334 9.3v9.3H77.333v-9.3zm65.334 106.4c0 5.128-4.188 9.3-9.334 9.3H66.667c-5.146 0-9.334-4.172-9.334-9.3V64.1h85.334v89.1zm-52-59.85v39.9a4 4 0 0 1-8 0v-39.9a4 4 0 0 1 8 0zm26.666 0v39.9a4 4 0 0 1-8 0v-39.9a4 4 0 0 1 8 0z" fill="#242323" data-color="1"></path>
    </g>
</svg>