<svg xmlns:xlink="http://www.w3.org/1999/xlink" preserveAspectRatio="xMidYMid meet" data-bbox="33.2 33.199 133.598 133.601" viewBox="33.2 33.199 133.598 133.601" height="200" width="200" xmlns="http://www.w3.org/2000/svg" data-type="color" role="presentation" aria-hidden="true"><defs><style>#comp-kv5nqb4f svg [data-color="1"] {fill: #7A8F56;}</style></defs>
    <g>
        <path d="M104.399 157.998c-2.332 0-4.679-.13-6.977-.387l.65-5.831c2.083.232 4.21.35 6.326.35 31.173 0 56.533-25.36 56.533-56.532 0-31.171-25.36-56.53-56.533-56.53-4.811 0-9.588.605-14.203 1.799l-1.47-5.682a62.599 62.599 0 0 1 15.672-1.986c34.408 0 62.401 27.992 62.401 62.398s-27.991 62.401-62.399 62.401z" fill="#7A8F56" data-color="1"></path>
        <path d="M165.227 102.253h-10.163c-.98 0-1.897-.49-2.441-1.307l-4.997-7.495h-3.083l-2.074 2.074c-.55.55-1.295.86-2.074.86h-8.802a2.928 2.928 0 0 1-2.074-.86l-13.81-13.81H97.747a2.935 2.935 0 0 1-2.934-2.934v-5.868c0-8.5 5.597-14.67 13.309-14.67h4.653l5.008-5.008c.55-.55 1.295-.86 2.074-.86h13.547l5.713-5.119 3.914 4.369-6.547 5.868a2.925 2.925 0 0 1-1.957.749h-13.455l-5.008 5.008c-.55.55-1.295.86-2.074.86h-5.868c-5.14 0-7.441 4.421-7.441 8.802v2.934h16.243c.779 0 1.524.309 2.074.86l13.81 13.81h6.372l2.074-2.074c.55-.55 1.295-.86 2.074-.86h5.868c.98 0 1.897.49 2.441 1.307l4.997 7.495h8.593v5.869z" fill="#7A8F56" data-color="1"></path>
        <path d="M119.857 137.46h-7.441a2.933 2.933 0 0 1-2.934-2.934v-19.141l-5.335-4.331h-9.335a2.935 2.935 0 0 1-2.934-2.934v-8.8c0-.693.245-1.364.693-1.894l7.441-8.803a2.935 2.935 0 0 1 2.241-1.04h14.67c.733 0 1.441.275 1.98.769l16.031 14.67c.607.556.954 1.341.954 2.165v17.604a2.93 2.93 0 0 1-.977 2.185l-13.097 11.736a2.929 2.929 0 0 1-1.957.748zm-4.507-5.868h3.384l11.286-10.113v-15.001L115.783 93.45h-12.168l-5.868 6.944v4.792h7.441a2.93 2.93 0 0 1 1.848.656l7.229 5.868a2.93 2.93 0 0 1 1.086 2.278v17.604z" fill="#7A8F56" data-color="1"></path>
        <path fill="#7A8F56" d="M44.936 52.375v5.868H33.2v-5.868h11.736z" data-color="1"></path>
        <path fill="#7A8F56" d="M44.936 69.979v5.868H33.2v-5.868h11.736z" data-color="1"></path>
        <path fill="#7A8F56" d="M44.936 87.583v5.868H33.2v-5.868h11.736z" data-color="1"></path>
        <path fill="#7A8F56" d="M44.936 105.187v5.868H33.2v-5.868h11.736z" data-color="1"></path>
        <path fill="#7A8F56" d="M71.341 61.177v85.085h-5.868V61.177h5.868z" data-color="1"></path>
        <path d="M68.407 166.8c-12.942 0-23.471-10.53-23.471-23.472a23.495 23.495 0 0 1 8.802-18.309V52.375c0-8.088 6.581-14.67 14.67-14.67s14.67 6.581 14.67 14.67v72.644a23.497 23.497 0 0 1 8.802 18.309C91.879 156.27 81.349 166.8 68.407 166.8zm0-123.227c-4.854 0-8.802 3.948-8.802 8.802v75.641l-1.255.875a17.63 17.63 0 0 0-7.547 14.436c0 9.707 7.896 17.604 17.604 17.604s17.604-7.896 17.604-17.604a17.63 17.63 0 0 0-7.547-14.436l-1.255-.875V52.375c0-4.853-3.948-8.802-8.802-8.802z" fill="#7A8F56" data-color="1"></path>
    </g>
</svg>