<svg xmlns:xlink="http://www.w3.org/1999/xlink" preserveAspectRatio="xMidYMid meet" data-bbox="34.5 34.5 131 131" xmlns="http://www.w3.org/2000/svg" width="200" height="200" viewBox="34.5 34.5 131 131" data-type="color" role="presentation" aria-hidden="true"><defs><style>#comp-kwz1brl3 svg [data-color="1"] {fill: #242323;}</style></defs>
    <g>
        <path fill="#242323" d="M163.953 34.5H36.047c-.854 0-1.547.693-1.547 1.547v127.906c0 .854.693 1.547 1.547 1.547h127.906c.854 0 1.547-.693 1.547-1.547V36.047c0-.854-.693-1.547-1.547-1.547zm-1.547 127.906H37.594V37.594h124.811v124.812h.001zm-113.981-9.284h45.386c.854 0 1.547-.693 1.547-1.547V48.425c0-.854-.693-1.547-1.547-1.547H48.425c-.854 0-1.547.693-1.547 1.547v103.15c0 .854.693 1.547 1.547 1.547zm1.547-103.15h42.291v100.055H49.972V49.972zm57.764 35.071h-3.094V48.425c0-.854.693-1.547 1.547-1.547h45.386c.854 0 1.547.693 1.547 1.547v103.15c0 .854-.693 1.547-1.547 1.547h-45.386a1.547 1.547 0 01-1.547-1.547V117.02h3.094v33.008h42.291V49.972h-42.291v35.071zM59.709 70.149a1.548 1.548 0 010-2.188l8.252-8.252a1.548 1.548 0 012.188 2.188l-8.252 8.252c-.302.302-.697.453-1.094.453s-.792-.151-1.094-.453zm22.818-6.314a1.548 1.548 0 010 2.188l-20.63 20.63c-.302.302-.697.453-1.094.453s-.792-.151-1.094-.453a1.548 1.548 0 010-2.188l20.63-20.63a1.548 1.548 0 012.188 0zm17.989 46.48v-2.063c0-.586.33-1.122.856-1.384l4.126-2.063c.214-.107.451-.163.691-.163h17.535c1.99 0 3.61-1.62 3.61-3.61s-1.62-3.61-3.61-3.61h-17.535c-.24 0-.477-.056-.691-.163l-4.126-2.063a1.545 1.545 0 01-.856-1.384v-2.063a1.547 1.547 0 013.094 0v1.106l2.943 1.473h17.171c3.697 0 6.705 3.008 6.705 6.705s-3.008 6.705-6.705 6.705h-17.171l-2.943 1.473v1.106a1.547 1.547 0 11-3.094-.002z" data-color="1"></path>
    </g>
</svg>